<svg width="365" height="593" viewBox="0 0 365 593" fill="none" xmlns="http://www.w3.org/2000/svg">
<g clip-path="url(#clip0_1039_206)">
<path d="M110.766 112.965C108.868 120.51 102.684 135.68 102.63 143.505L103.057 142.952C104.217 144.433 105.495 145.819 106.878 147.095C108.702 144.567 111.033 142.447 113.721 140.871C112.599 144.279 112.17 147.878 112.459 151.454C116.815 160.625 130.357 154.434 138.489 152.261C148.037 160.599 159.365 161.572 173.022 154.173C177.104 154.04 181.645 153.678 184.143 150.912C186.641 148.147 173.648 134.004 174.713 130.462C182.299 105.227 181.87 107.971 171.929 98.3498C169.742 96.2325 169.269 92.6928 166.692 90.7394C163.116 88.0321 158.157 87.7246 153.601 87.5578C154.765 87.4614 155.886 87.0665 156.854 86.4111C157.822 85.7556 158.605 84.8617 159.128 83.8155C159.57 82.7729 159.715 81.6284 159.549 80.5082C159.382 79.3881 158.91 78.3357 158.184 77.4672C156.233 75.0414 152.716 73.9551 149.472 74.0056C146.299 74.2198 143.177 74.9215 140.217 76.0861C138.269 76.6172 136.432 77.4932 134.793 78.6726C134.019 79.2314 133.435 80.0132 133.118 80.9135C132.8 81.8138 132.765 82.7896 133.016 83.7106C133.4 84.5404 133.965 85.2729 134.671 85.8533C135.377 86.4338 136.204 86.8472 137.092 87.0628C138.451 87.4318 139.852 87.6183 141.26 87.6173C134.798 87.6566 128.501 89.6648 123.207 93.3749C116.591 98.1559 112.674 105.423 110.766 112.965Z" fill="#2F2E41"/>
<path d="M176.399 128.303C179.719 114.466 171.207 100.555 157.386 97.2302C143.566 93.906 129.67 102.428 126.35 116.265C123.03 130.102 131.542 144.014 145.362 147.338C159.183 150.663 173.078 142.14 176.399 128.303Z" fill="#FFB6B6"/>
<path d="M134.195 111.934C136.281 116.207 140.702 117.074 144.73 117.441C146 117.561 147.276 117.66 148.558 117.728C148.941 117.088 149.355 116.455 149.795 115.851C151.62 113.323 153.95 111.203 156.638 109.627C155.749 112.319 155.297 115.137 155.301 117.973C157.709 117.995 160.121 117.952 162.538 117.845C164.616 118 166.674 117.35 168.288 116.029C169.901 114.709 170.946 112.818 171.206 110.748C173.862 114.01 176.887 117.011 180.593 117.946C184.919 118.869 178.074 116.861 180.231 112.994C181.987 110.137 182.69 106.525 183.08 103.077C183.54 98.9793 183.474 94.3398 181.174 92.0925C179.33 90.2715 172.064 96.1008 169.591 96.6211C164.138 97.7943 174.643 94.0285 169.544 96.2913L169.232 97.364C169.399 91.7531 166.704 86.7434 162.788 85.3643C160.148 84.4452 157.205 85.06 154.353 85.7075C150.668 86.3778 147.1 87.5858 143.765 89.2929C139.958 91.387 136.889 94.6079 134.98 98.5148C132.946 102.759 132.394 108.244 134.195 111.934Z" fill="#2F2E41"/>
<path d="M158.092 83.1226C157.83 83.0825 158.495 83.0893 158.27 83.1262C158.381 83.1044 158.49 83.0735 158.597 83.034C158.615 83.0277 158.858 82.912 158.697 82.9946C159.061 82.8296 159.369 82.5629 159.584 82.2266C160.082 81.4034 160.438 80.502 160.638 79.5603C160.882 78.3185 161.386 77.1423 162.116 76.1091C162.325 75.8322 162.597 75.6085 162.909 75.4564C163.221 75.3043 163.564 75.228 163.911 75.2337C164.258 75.2394 164.599 75.3269 164.906 75.4891C165.213 75.6514 165.477 75.8838 165.677 76.1675C166.323 77.1999 166.054 78.6168 165.846 79.7454C165.633 80.9176 165.232 82.0478 164.66 83.0922C163.695 84.8041 162.254 86.198 160.511 87.104C158.496 88.1634 156.194 88.5441 153.945 88.1898C153.644 88.1101 153.372 87.9443 153.163 87.7127C152.954 87.481 152.817 87.1935 152.768 86.8851C152.719 86.5767 152.761 86.2608 152.888 85.9759C153.016 85.6909 153.223 85.4492 153.485 85.2802L156.888 83.3133C157.066 83.204 157.264 83.1308 157.471 83.0981C157.677 83.0654 157.888 83.0737 158.092 83.1226C158.295 83.1715 158.487 83.2601 158.656 83.3831C158.825 83.5062 158.968 83.6615 159.077 83.84C159.187 84.0185 159.26 84.2168 159.292 84.4236C159.325 84.6304 159.317 84.8416 159.268 85.0452C159.219 85.2487 159.131 85.4407 159.008 85.61C158.885 85.7794 158.73 85.9228 158.551 86.0322L155.149 87.999L154.689 85.0895C155.156 85.1583 155.63 85.1745 156.1 85.1379C156.606 85.12 157.106 85.0303 157.586 84.8715C158.049 84.7454 158.497 84.5692 158.922 84.3459C159.194 84.2022 159.459 84.0448 159.715 83.8742C159.808 83.8122 159.9 83.7485 159.991 83.683C159.984 83.6877 160.371 83.3863 160.202 83.5261C160.628 83.1646 161.019 82.7641 161.37 82.3299C161.494 82.176 161.605 82.0122 161.702 81.8402C161.873 81.5598 162.028 81.2696 162.165 80.9712C162.441 80.3412 162.637 79.6792 162.75 79.0006C162.804 78.7144 162.844 78.4255 162.868 78.1352C162.864 77.9782 162.872 77.8211 162.889 77.665C162.974 77.2874 162.892 77.8784 163.067 78.0132L163.798 78.4128C163.928 78.433 164.06 78.4237 164.186 78.3856C164.312 78.3476 164.427 78.2816 164.524 78.1928C164.588 78.0712 164.573 78.0919 164.48 78.2549C164.372 78.4466 164.276 78.6449 164.193 78.8487C164.016 79.326 163.863 79.8121 163.734 80.3051C163.473 81.3518 163.1 82.3677 162.623 83.3352C162.159 84.3113 161.4 85.116 160.453 85.6345C159.505 86.153 158.419 86.3589 157.348 86.2228C156.939 86.121 156.586 85.8624 156.366 85.5027C156.146 85.1431 156.076 84.7112 156.171 84.3003C156.278 83.8937 156.537 83.544 156.895 83.3245C157.253 83.105 157.682 83.0326 158.092 83.1226Z" fill="#2F2E41"/>
<path d="M148.68 569.392L160.489 569.391L166.107 523.787H148.678L148.68 569.392Z" fill="#FFB6B6"/>
<path d="M164.419 570.456V562.44L161.315 562.63L148.677 563.38L145.752 563.56L143.516 590.404L143.396 591.843H151.782L152.051 590.414L153.269 583.918L156.413 590.414L157.102 591.843H179.333C180.656 591.835 181.922 591.304 182.856 590.367C183.791 589.429 184.318 588.161 184.324 586.836C185.262 582.449 166.775 572.964 164.419 570.456Z" fill="#2F2E41"/>
<path d="M17.207 555.142L26.9303 561.852L57.4069 527.496L43.0561 517.594L17.207 555.142Z" fill="#FFB6B6"/>
<path d="M29.5627 564.962L34.1062 558.363L31.4424 556.755L20.6123 550.192L18.1022 548.678L1.04433 569.51L0.129883 570.626L7.03377 575.391L8.06584 574.367L12.7509 569.711L11.6575 576.846L11.4145 578.414L29.7181 591.045C30.8121 591.79 32.1553 592.073 33.4561 591.832C34.757 591.591 35.9104 590.846 36.6659 589.759C39.9255 586.68 30.0803 568.366 29.5627 564.962Z" fill="#2F2E41"/>
<path d="M311.311 105.748C310.398 107.736 308.747 109.289 306.709 110.076C304.67 110.863 302.405 110.823 300.396 109.964C299.99 109.783 299.6 109.569 299.23 109.323L248.534 147.776L232.605 134.273L297.405 97.5374C298.541 96.0787 300.127 95.0373 301.916 94.5759C303.705 94.1144 305.596 94.2589 307.294 94.9867C309.238 95.8418 310.762 97.4349 311.533 99.4155C312.303 101.396 312.256 103.602 311.402 105.548C311.373 105.615 311.342 105.682 311.311 105.748Z" fill="#FFB6B6"/>
<path d="M162.437 213.744C162.437 213.744 144.521 209.167 157.072 185.612C169.622 162.057 217.893 135.79 221.234 135.463C224.575 135.136 221.864 138.323 227.652 133.07C232.359 128.797 234.286 132.867 234.461 130.789C234.922 125.31 242.058 134.641 241.111 127.911C240.163 121.181 256.286 142.829 256.286 142.829C256.286 142.829 256.281 146.842 247.813 150.097C243.057 151.925 239.738 150.376 239.85 154.473C239.962 158.569 230.207 157.037 228.943 157.933C227.679 158.829 206.344 187.289 206.344 187.289L162.437 213.744Z" fill="#8470E7"/>
<path d="M331.891 186.844C309.99 181.386 291.188 170.658 276.488 152.947C275.368 152.26 274.565 151.156 274.257 149.877C273.948 148.598 274.159 147.249 274.843 146.125L300.412 104.234C301.099 103.112 302.202 102.309 303.479 102C304.757 101.691 306.104 101.903 307.227 102.587L362.629 136.484C363.75 137.171 364.553 138.276 364.861 139.555C365.169 140.834 364.958 142.183 364.274 143.306L338.705 185.197C338.019 186.319 336.916 187.123 335.638 187.431C334.361 187.74 333.013 187.529 331.891 186.844Z" fill="#E6E6E6"/>
<path d="M317.118 173.393C305.587 172.132 293.602 162.905 281.5 151.601C280.45 150.957 279.699 149.923 279.41 148.725C279.121 147.527 279.319 146.264 279.959 145.211L301.934 109.21C302.577 108.159 303.61 107.406 304.806 107.117C306.003 106.828 307.265 107.026 308.316 107.667L357.617 137.831C358.666 138.474 359.418 139.509 359.707 140.706C359.995 141.904 359.798 143.168 359.157 144.22L345.544 166.522C342.681 171.203 338.079 174.554 332.75 175.842C327.421 177.13 321.799 176.249 317.118 173.393Z" fill="white"/>
<path d="M337.96 137.147C338.46 135.17 336.565 132.984 333.726 132.263C330.888 131.543 328.181 132.562 327.681 134.539C327.18 136.516 329.076 138.703 331.914 139.423C334.753 140.143 337.459 139.124 337.96 137.147Z" fill="white"/>
<path d="M303.296 136.923C303.796 134.946 301.901 132.76 299.062 132.04C296.224 131.319 293.517 132.338 293.016 134.315C292.516 136.292 294.411 138.479 297.25 139.199C300.089 139.919 302.795 138.9 303.296 136.923Z" fill="#3F3D56"/>
<path d="M344.465 165.941C344.965 163.964 343.07 161.777 340.231 161.057C337.393 160.337 334.686 161.355 334.185 163.332C333.685 165.309 335.58 167.496 338.419 168.216C341.258 168.936 343.964 167.918 344.465 165.941Z" fill="#FF6584"/>
<path d="M352.546 176.798C352.751 174.957 351.88 173.348 350.601 173.205C349.321 173.061 348.118 174.438 347.912 176.28C347.707 178.121 348.577 179.73 349.857 179.873C351.136 180.016 352.34 178.639 352.546 176.798Z" fill="#E6E6E6"/>
<path d="M355.396 198.545C355.602 196.704 354.731 195.095 353.452 194.952C352.172 194.809 350.968 196.186 350.763 198.027C350.557 199.869 351.428 201.477 352.707 201.62C353.987 201.764 355.191 200.387 355.396 198.545Z" fill="#3F3D56"/>
<path d="M319.957 157.101C320.162 155.259 319.292 153.65 318.012 153.507C316.733 153.364 315.529 154.741 315.323 156.582C315.118 158.424 315.988 160.033 317.268 160.176C318.547 160.319 319.751 158.942 319.957 157.101Z" fill="#E6E6E6"/>
<path d="M337.402 150.539C337.607 148.698 336.737 147.089 335.457 146.946C334.178 146.803 332.974 148.179 332.769 150.021C332.563 151.862 333.434 153.471 334.713 153.614C335.993 153.757 337.196 152.381 337.402 150.539Z" fill="#FF6584"/>
<path d="M315.911 132.812C316.116 130.971 315.246 129.362 313.966 129.219C312.687 129.076 311.483 130.452 311.277 132.294C311.072 134.135 311.942 135.744 313.222 135.887C314.501 136.03 315.705 134.654 315.911 132.812Z" fill="#3F3D56"/>
<path d="M207.168 312.381L207.472 309.183L194.337 273.129L138.361 283.936C138.361 283.936 109.512 319.518 115.927 343.069C117.667 349.456 95.7756 391.877 102.98 387.302C110.185 382.726 95.4869 395.461 99.2511 395.759C103.015 396.057 97.1039 400.497 95.9843 402.918C70.1998 458.675 28.9629 531.476 28.9629 531.476C28.9629 531.476 37.5392 555.615 51.0716 542.118C64.6039 528.622 155.132 408.726 155.132 408.726C155.132 408.726 153.912 416.532 152.211 428.4C146.955 465.065 138.698 538.878 146.034 542.699C151.89 545.734 158.447 547.156 165.033 546.819C165.033 546.819 213.583 434.418 207.168 413.008" fill="#2F2E41"/>
<path d="M174.071 162.009L168.861 151.167L140.635 154.591L137.717 163.436C129.537 171.618 122.799 181.126 117.789 191.559C109.979 208.263 135.972 282.05 131.695 286.332C127.418 290.614 111.571 292.922 118.699 298.167C125.827 303.413 118.699 300.058 116.923 306.043C115.146 312.028 111.648 335.848 111.648 335.848C111.648 335.848 138.786 358.624 155.894 324.368C180.843 326.509 185.832 302.958 185.832 302.958L194.22 289.05C205.102 284.063 188.327 226.953 192.604 215.534C196.881 204.115 174.071 162.009 174.071 162.009Z" fill="#8470E7"/>
<path d="M199.866 284.264C199.931 280.07 199.918 275.553 201.778 271.689C203.175 268.786 205.769 265.886 209.186 265.643C212.092 265.437 215.39 267.157 215.657 270.319C215.975 274.078 212.814 277.668 210.255 280.042C207.162 282.885 203.397 284.894 199.315 285.877C199.028 285.963 198.773 286.131 198.58 286.359C198.386 286.588 198.263 286.867 198.224 287.164C198.185 287.461 198.233 287.763 198.361 288.033C198.49 288.303 198.693 288.531 198.948 288.688C202.198 290.488 205.071 292.899 207.41 295.789C209.569 298.459 211.801 301.985 212.257 305.46C212.451 306.941 212.189 308.74 210.623 309.359C209.137 309.947 207.327 309.181 206.052 308.425C203.05 306.425 200.699 303.591 199.286 300.271C197.543 296.509 196.956 292.314 197.599 288.218C197.916 286.281 194.956 285.448 194.636 287.4C193.228 296 196.656 306.242 204.342 310.983C207.839 313.14 213.173 313.519 214.929 308.967C216.52 304.842 213.888 299.886 211.689 296.494C208.868 292.144 205.026 288.552 200.498 286.032L200.131 288.843C204.594 287.744 208.716 285.56 212.133 282.485C215.403 279.545 218.925 275.181 218.743 270.521C218.58 266.333 215.238 263.296 211.231 262.684C206.875 262.018 202.987 264.394 200.491 267.84C197.067 272.566 196.88 278.654 196.793 284.264C196.807 284.663 196.975 285.04 197.261 285.317C197.548 285.595 197.931 285.749 198.329 285.749C198.728 285.749 199.111 285.595 199.397 285.317C199.684 285.04 199.852 284.663 199.866 284.264L199.866 284.264Z" fill="#2F2E41"/>
<path d="M75.079 343.006C77.0167 341.996 78.484 340.268 79.1687 338.19C79.8535 336.113 79.7016 333.85 78.7453 331.883C78.5446 331.487 78.3115 331.107 78.0483 330.749L113.904 278.155L99.6467 262.895L66.2008 329.507C64.8016 330.715 63.8411 332.352 63.4691 334.164C63.0972 335.975 63.3348 337.859 64.1447 339.521C64.6147 340.463 65.2652 341.302 66.0592 341.992C66.8532 342.682 67.7752 343.208 68.7724 343.541C69.7696 343.874 70.8225 344.007 71.8711 343.933C72.9197 343.858 73.9433 343.578 74.8836 343.107C74.9492 343.075 75.0143 343.041 75.079 343.006Z" fill="#FFB6B6"/>
<path d="M175.459 188.802C175.459 188.802 170.008 171.113 147.13 184.827C124.251 198.54 100.432 248.107 100.271 251.464C100.11 254.821 103.156 251.953 98.2005 258.001C94.1704 262.919 98.3257 264.644 96.2617 264.922C90.819 265.654 100.48 272.328 93.7193 271.713C86.9584 271.098 109.351 286.151 109.351 286.151C109.351 286.151 113.354 285.948 116.183 277.319C117.772 272.473 116.063 269.231 120.155 269.141C124.247 269.05 122.236 259.371 123.068 258.062C123.899 256.754 151.237 234.015 151.237 234.015L175.459 188.802Z" fill="#8470E7"/>
<path d="M139.654 101.533C156.477 82.1096 126.573 133.538 148.913 153.587C139.808 160.82 106.41 158.253 108.298 153.587C110.185 148.92 116.371 104.394 123.008 101.533C129.646 98.6719 139.654 101.533 139.654 101.533Z" fill="#2F2E41"/>
<path d="M116.722 345.317C117.222 343.34 115.327 341.153 112.488 340.433C109.649 339.713 106.943 340.731 106.442 342.708C105.942 344.685 107.837 346.872 110.676 347.592C113.514 348.312 116.221 347.294 116.722 345.317Z" fill="white"/>
<path d="M82.0575 345.093C82.558 343.116 80.6625 340.929 77.824 340.209C74.9854 339.489 72.2786 340.508 71.7782 342.485C71.2778 344.462 73.1732 346.648 76.0117 347.369C78.8503 348.089 81.5571 347.07 82.0575 345.093Z" fill="#3F3D56"/>
<path d="M123.226 374.11C123.727 372.133 121.831 369.947 118.993 369.227C116.154 368.507 113.448 369.525 112.947 371.502C112.447 373.479 114.342 375.666 117.181 376.386C120.019 377.106 122.726 376.087 123.226 374.11Z" fill="#FF6584"/>
<path d="M131.307 384.967C131.513 383.126 130.642 381.517 129.363 381.374C128.083 381.231 126.879 382.608 126.674 384.449C126.468 386.29 127.339 387.899 128.618 388.042C129.898 388.186 131.102 386.809 131.307 384.967Z" fill="#E6E6E6"/>
<path d="M134.158 406.715C134.363 404.874 133.493 403.265 132.213 403.122C130.934 402.979 129.73 404.356 129.524 406.197C129.319 408.038 130.19 409.647 131.469 409.79C132.748 409.934 133.952 408.557 134.158 406.715Z" fill="#3F3D56"/>
<path d="M98.7184 365.27C98.9239 363.429 98.0533 361.82 96.7738 361.677C95.4944 361.534 94.2905 362.91 94.085 364.752C93.8795 366.593 94.7501 368.202 96.0296 368.345C97.3091 368.488 98.5129 367.112 98.7184 365.27Z" fill="#E6E6E6"/>
<path d="M116.163 358.709C116.368 356.868 115.498 355.259 114.218 355.116C112.939 354.973 111.735 356.349 111.529 358.191C111.324 360.032 112.194 361.641 113.474 361.784C114.753 361.927 115.957 360.55 116.163 358.709Z" fill="#FF6584"/>
<path d="M94.6715 340.982C94.8771 339.141 94.0064 337.532 92.7269 337.389C91.4475 337.246 90.2436 338.622 90.0381 340.464C89.8326 342.305 90.7032 343.914 91.9827 344.057C93.2622 344.2 94.466 342.823 94.6715 340.982Z" fill="#3F3D56"/>
<path d="M320.548 294.044C321.048 292.067 319.153 289.88 316.314 289.16C313.476 288.44 310.769 289.458 310.268 291.435C309.768 293.412 311.663 295.599 314.502 296.319C317.341 297.039 320.047 296.021 320.548 294.044Z" fill="white"/>
<path d="M285.884 293.819C286.384 291.842 284.489 289.656 281.65 288.936C278.812 288.215 276.105 289.234 275.604 291.211C275.104 293.188 276.999 295.375 279.838 296.095C282.676 296.815 285.383 295.796 285.884 293.819Z" fill="#3F3D56"/>
<path d="M327.053 322.837C327.553 320.86 325.658 318.673 322.819 317.953C319.98 317.233 317.274 318.252 316.773 320.229C316.273 322.206 318.168 324.392 321.007 325.113C323.845 325.833 326.552 324.814 327.053 322.837Z" fill="#FF6584"/>
<path d="M335.133 333.694C335.339 331.853 334.468 330.244 333.189 330.101C331.909 329.957 330.706 331.334 330.5 333.176C330.295 335.017 331.165 336.626 332.445 336.769C333.724 336.912 334.928 335.535 335.133 333.694Z" fill="#E6E6E6"/>
<path d="M337.984 355.442C338.19 353.6 337.319 351.992 336.039 351.849C334.76 351.705 333.556 353.082 333.351 354.924C333.145 356.765 334.016 358.374 335.295 358.517C336.575 358.66 337.779 357.283 337.984 355.442Z" fill="#3F3D56"/>
<path d="M302.545 313.997C302.75 312.156 301.879 310.547 300.6 310.404C299.321 310.261 298.117 311.637 297.911 313.479C297.706 315.32 298.576 316.929 299.856 317.072C301.135 317.215 302.339 315.839 302.545 313.997Z" fill="#E6E6E6"/>
<path d="M319.989 307.436C320.194 305.594 319.324 303.985 318.044 303.842C316.765 303.699 315.561 305.076 315.356 306.917C315.15 308.759 316.021 310.367 317.3 310.511C318.58 310.654 319.783 309.277 319.989 307.436Z" fill="#FF6584"/>
<path d="M298.498 289.709C298.703 287.867 297.833 286.258 296.553 286.115C295.274 285.972 294.07 287.349 293.864 289.19C293.659 291.032 294.529 292.64 295.809 292.784C297.088 292.927 298.292 291.55 298.498 289.709Z" fill="#3F3D56"/>
<path d="M45.0244 140.223C45.5248 138.246 43.6293 136.06 40.7908 135.34C37.9522 134.619 35.2454 135.638 34.745 137.615C34.2445 139.592 36.14 141.779 38.9786 142.499C41.8171 143.219 44.5239 142.2 45.0244 140.223Z" fill="white"/>
<path d="M10.3593 140C10.8597 138.023 8.96428 135.836 6.12571 135.116C3.28715 134.396 0.580362 135.414 0.0799361 137.391C-0.42049 139.368 1.47494 141.555 4.31351 142.275C7.15207 142.995 9.85887 141.977 10.3593 140Z" fill="#3F3D56"/>
<path d="M51.5292 169.017C52.0296 167.04 50.1342 164.853 47.2956 164.133C44.4571 163.413 41.7503 164.432 41.2499 166.409C40.7494 168.386 42.6449 170.572 45.4834 171.292C48.322 172.013 51.0288 170.994 51.5292 169.017Z" fill="#FF6584"/>
<path d="M59.61 179.874C59.8155 178.033 58.9449 176.424 57.6654 176.281C56.3859 176.138 55.1821 177.514 54.9766 179.356C54.7711 181.197 55.6417 182.806 56.9212 182.949C58.2007 183.092 59.4045 181.716 59.61 179.874Z" fill="#E6E6E6"/>
<path d="M62.4596 201.622C62.6651 199.781 61.7945 198.172 60.515 198.029C59.2355 197.886 58.0317 199.262 57.8262 201.104C57.6207 202.945 58.4913 204.554 59.7708 204.697C61.0503 204.84 62.2541 203.464 62.4596 201.622Z" fill="#3F3D56"/>
<path d="M27.0201 160.177C27.2257 158.335 26.355 156.727 25.0756 156.583C23.7961 156.44 22.5923 157.817 22.3868 159.659C22.1812 161.5 23.0519 163.109 24.3313 163.252C25.6108 163.395 26.8146 162.018 27.0201 160.177Z" fill="#E6E6E6"/>
<path d="M44.4655 153.615C44.671 151.774 43.8003 150.165 42.5209 150.022C41.2414 149.879 40.0376 151.256 39.8321 153.097C39.6266 154.938 40.4972 156.547 41.7767 156.69C43.0561 156.833 44.2599 155.457 44.4655 153.615Z" fill="#FF6584"/>
<path d="M22.9743 135.889C23.1798 134.047 22.3091 132.439 21.0297 132.295C19.7502 132.152 18.5464 133.529 18.3409 135.37C18.1354 137.212 19.006 138.821 20.2854 138.964C21.5649 139.107 22.7688 137.73 22.9743 135.889Z" fill="#3F3D56"/>
<path d="M207.88 7.9381C208.38 5.96109 206.485 3.77457 203.646 3.05436C200.808 2.33414 198.101 3.35298 197.6 5.32998C197.1 7.30699 198.995 9.49351 201.834 10.2137C204.673 10.9339 207.379 9.9151 207.88 7.9381Z" fill="white"/>
<path d="M173.216 7.71446C173.716 5.73746 171.821 3.55093 168.982 2.83072C166.144 2.11051 163.437 3.12934 162.936 5.10635C162.436 7.08336 164.331 9.26988 167.17 9.99009C170.009 10.7103 172.715 9.69147 173.216 7.71446Z" fill="#3F3D56"/>
<path d="M214.385 36.7316C214.885 34.7545 212.99 32.568 210.151 31.8478C207.313 31.1276 204.606 32.1464 204.105 34.1234C203.605 36.1004 205.5 38.287 208.339 39.0072C211.177 39.7274 213.884 38.7086 214.385 36.7316Z" fill="#FF6584"/>
<path d="M222.465 47.5889C222.671 45.7475 221.8 44.1387 220.521 43.9956C219.241 43.8525 218.038 45.2292 217.832 47.0706C217.627 48.912 218.497 50.5208 219.777 50.664C221.056 50.8071 222.26 49.4304 222.465 47.5889Z" fill="#E6E6E6"/>
<path d="M225.316 69.3369C225.522 67.4955 224.651 65.8867 223.371 65.7436C222.092 65.6005 220.888 66.9772 220.683 68.8186C220.477 70.66 221.348 72.2689 222.627 72.412C223.907 72.5551 225.111 71.1783 225.316 69.3369Z" fill="#3F3D56"/>
<path d="M189.877 27.8917C190.082 26.0503 189.211 24.4415 187.932 24.2983C186.653 24.1552 185.449 25.5319 185.243 27.3733C185.038 29.2148 185.908 30.8236 187.188 30.9667C188.467 31.1098 189.671 29.7331 189.877 27.8917Z" fill="#E6E6E6"/>
<path d="M207.322 21.3302C207.527 19.4887 206.657 17.88 205.377 17.7368C204.098 17.5937 202.894 18.9704 202.689 20.8118C202.483 22.6532 203.354 24.262 204.633 24.4052C205.913 24.5483 207.116 23.1716 207.322 21.3302Z" fill="#FF6584"/>
<path d="M185.831 3.6036C186.036 1.76218 185.166 0.153389 183.886 0.0102539C182.607 -0.132881 181.403 1.24384 181.197 3.08526C180.992 4.92667 181.862 6.53547 183.142 6.6786C184.421 6.82174 185.625 5.44501 185.831 3.6036Z" fill="#3F3D56"/>
</g>
<defs>
<clipPath id="clip0_1039_206">
<rect width="365" height="593" fill="white"/>
</clipPath>
</defs>
</svg>
