<svg width="737" height="489" viewBox="0 0 737 489" fill="none" xmlns="http://www.w3.org/2000/svg">
<path d="M415.504 488L414.667 481.036L407.234 478.051L403.413 460.773L405.507 450.563L394.305 447.526L390.327 448.416L384.569 462.92L381.115 467.37L375.566 464.595L373.734 460.511L377.346 443.232L382.004 439.776L382.737 437.682L374.31 431.032L365.987 430.352L357.717 431.347L355.1 429.357L337.251 432.132L324.794 432.76L319.507 431.661L316.366 429.619L314.639 418.937L321.339 407.837L322.648 402.339L321.339 400.035L318.198 398.464L313.383 388.15L313.697 383.489L311.08 379.929L307.573 378.411L301.239 372.442L293.44 356.681L295.324 353.801L295.743 344.586L288.939 336.627L286.95 326.993L287.839 322.752L289.881 319.715L289.776 305.368L285.118 296.153L266.326 281.335L260.412 273.219L244.866 277.722L217.072 277.042L213.617 274.214L204.98 273.481L202.782 275.261L193.779 274.895L190.01 267.983L186.713 265.313L168.34 261.124L159.18 256.726L155.098 251.49L141.593 251.542L135.992 254.37L129.083 253.689L115.265 247.982L102.022 245.573L94.2751 241.437L88.151 239.919L84.3299 241.856L82.5503 244.997L76.2168 248.244L59.0483 246.725L38.0588 247.301L18.0115 243.898L1 255.888L5.39679 250.233L9.21773 242.17L15.813 236.201L55.3843 212.43L65.5912 202.638L72.1863 189.915L81.2417 181.066L83.3354 174.73L90.8728 169.337L92.3384 162.949L90.5064 158.551L100.975 146.718L107.309 134.465L107.675 129.544L106.052 119.438L107.256 117.396L112.281 114.673L125.89 95.6145L126.728 80.2729L129.973 71.4765L135.26 69.9057L139.081 66.5546L149.497 52.5222L155.883 47.1815L158.343 45.9772L165.2 45.7677L173.051 41.6836L174.517 39.5893L176.611 26.7088L182.996 20.7921L194.25 14.98L204.3 13.0427L211.785 4.19388L219.637 1L223.562 1.73296L232.618 9.84885L245.965 10.2677L268.42 15.2943L277.161 13.4093L285.641 14.5612L296.11 11.472L307.52 18.907L316.262 23.0435L315.581 27.8607L317.309 35.2957L323.642 46.2389L326.94 46.396L329.766 44.7206L333.273 39.7987L335.419 33.882L336.78 32.8872L339.659 33.1489L341.543 35.191L342.852 40.2176L342.904 54.7736L349.185 57.5487L351.332 55.1926L349.918 41.8931L352.483 35.6623L354.838 33.1489L397.655 29.6409L402.942 23.0959L410.793 30.7404L416.655 32.9919L431.207 29.379L433.51 24.1954L432.463 21.7869L434.086 18.5929L446.543 18.017L455.232 22.1011L459.681 18.7499L466.538 17.2316L483.602 34.7721L484.649 40.2176L481.665 45.506L480.148 57.9152L483.183 61.1093L493.076 67.4448L495.17 75.5605L494.856 78.4927L486.9 89.1217L485.958 99.2796L490.093 103.154L491.715 106.348L493.652 117.92L500.457 127.345L504.801 137.764L504.644 142.215L513.071 141.953L517.154 140.33L518.62 138.445L523.854 138.183L543.221 145.095L544.425 147.032L544.163 153.682L540.499 165.096L530.763 179.338L532.124 194.732L531.13 212.796L528.355 220.964L532.124 229.342L541.441 235.834L550.915 240.18L553.585 249.186L547.251 252.851L557.824 270.183L563.739 271.492L574.26 270.235L575.202 273.01L594.15 267.774L597.082 269.973L603.939 268.298L607.864 263.166L608.126 258.768L606.87 257.511L607.76 245.469L613.989 243.741L614.46 245.573L612.628 248.139L612.68 250.652L624.928 251.071L637.438 249.762L646.808 246.254L653.246 239.761L663.348 234.421L674.916 233.269L681.406 229.447L688.054 232.274L690.985 238.4L697.423 246.725L706.688 248.767L723.176 245.992L732.074 246.045L736 254.632L727.363 265.889L719.512 269.607L705.013 271.492L702.396 270.706L690.095 275.994L684.39 282.016L678.684 300.342L678.946 302.489L687.478 311.547L689.99 312.908L689.676 313.955L680.83 316.155L675.282 311.861L667.535 317.673L665.285 321.076L666.698 322.228L662.72 325.579L645.865 333.695L634.088 337.36L632.623 339.664L632.832 344.691L635.449 352.807L633.774 355.006L626.446 356.367L622.782 353.016L615.768 351.498L599.437 348.88L594.936 349.665L588.026 351.445L578.971 355.739L576.354 358.409L570.02 369.666L563.164 372.651L560.546 372.023L563.582 369.562L561.07 363.174L554.946 358.723L550.601 365.163L551.962 369.09L550.392 372.284L510.507 394.485L505.534 398.779L503.911 404.852L486.795 420.56L469.784 430.77L459.734 433.546L436.179 450.353L423.984 460.616L420.477 461.035L418.173 464.281L422.884 466.532L426.339 466.847L431.207 464.962V468.941L427.962 475.8L421.052 480.251L415.504 488ZM647.436 367.52L639.375 364.116L633.303 365.059L630.738 363.069L631.262 358.985L636.234 355.582L641.94 345.895L645.708 347.204L649.163 350.607L649.844 365.844L647.436 367.52Z" fill="#858488" fill-opacity="0.1" stroke="#26272D" stroke-opacity="0.2" stroke-width="0.5"/>
<path d="M412.69 474L411.903 467.451L404.915 464.644L401.323 448.394L403.291 438.792L392.76 435.936L389.02 436.773L383.607 450.413L380.359 454.599L375.143 451.989L373.421 448.148L376.816 431.898L381.196 428.648L381.885 426.678L373.962 420.425L366.138 419.784L358.363 420.72L355.902 418.849L339.122 421.459L327.41 422.05L322.44 421.016L319.487 419.095L317.863 409.05L324.162 398.61L325.392 393.44L324.162 391.273L321.21 389.796L316.682 380.095L316.978 375.713L314.517 372.364L311.22 370.936L305.266 365.323L297.934 350.501L299.705 347.793L300.099 339.126L293.701 331.641L291.831 322.581L292.668 318.592L294.587 315.736L294.489 302.244L290.109 293.577L272.443 279.642L266.882 272.009L252.267 276.244L226.137 275.604L222.889 272.945L214.769 272.255L212.703 273.93L204.239 273.585L200.695 267.085L197.595 264.574L180.323 260.634L171.711 256.498L167.873 251.574L155.177 251.623L149.911 254.282L143.416 253.642L130.424 248.274L117.974 246.009L110.691 242.119L104.934 240.691L101.341 242.513L99.6684 245.468L93.7141 248.521L77.5733 247.093L57.8403 247.634L38.9931 244.434L23 255.71L27.1336 250.392L30.7258 242.809L36.9262 237.195L74.1286 214.839L83.7245 205.631L89.9248 193.665L98.4381 185.343L100.406 179.385L107.493 174.313L108.871 168.305L107.148 164.169L116.99 153.04L122.945 141.518L123.289 136.889L121.763 127.385L122.895 125.465L127.619 122.904L140.414 104.98L141.201 90.5523L144.252 82.2797L149.222 80.8025L152.815 77.6509L162.607 64.4541L168.611 59.4315L170.924 58.2989L177.37 58.1019L184.752 54.261L186.13 52.2913L188.098 40.1778L194.101 34.6135L204.681 29.1475L214.13 27.3256L221.167 19.0037L228.548 16L232.239 16.6893L240.752 24.3219L253.3 24.7158L274.411 29.4431L282.629 27.6703L290.601 28.7537L300.443 25.8484L311.171 32.8407L319.389 36.7308L318.749 41.2612L320.373 48.2535L326.327 58.545L329.428 58.6927L332.085 57.1171L335.382 52.4883L337.4 46.924L338.679 45.9884L341.385 46.2345L343.157 48.155L344.387 52.8822L344.436 66.5715L350.342 69.1813L352.359 66.9655L351.031 54.458L353.442 48.5982L355.656 46.2345L395.91 42.9354L400.88 36.7801L408.261 43.9694L413.773 46.0868L427.453 42.6891L429.618 37.8142L428.634 35.5491L430.16 32.5452L441.871 32.0037L450.04 35.8445L454.223 32.693L460.669 31.2651L476.712 47.761L477.696 52.8822L474.891 57.8557L473.464 69.526L476.318 72.5299L485.619 78.4881L487.587 86.1206L487.292 88.8781L479.812 98.8742L478.926 108.427L482.814 112.071L484.339 115.075L486.16 125.957L492.557 134.821L496.642 144.62L496.494 148.806L504.417 148.559L508.255 147.033L509.633 145.26L514.554 145.014L532.761 151.514L533.893 153.336L533.647 159.59L530.202 170.324L521.049 183.718L522.329 198.195L521.394 215.184L518.786 222.866L522.329 230.744L531.088 236.85L539.995 240.937L542.505 249.407L536.55 252.854L546.491 269.153L552.051 270.384L561.943 269.202L562.828 271.812L580.642 266.888L583.398 268.956L589.844 267.38L593.535 262.555L593.781 258.418L592.6 257.237L593.437 245.911L599.293 244.286L599.735 246.009L598.013 248.422L598.062 250.786L609.577 251.18L621.339 249.949L630.147 246.65L636.2 240.544L645.697 235.521L656.573 234.437L662.674 230.843L668.924 233.502L671.68 239.263L677.733 247.093L686.443 249.013L701.944 246.403L710.309 246.453L714 254.528L705.88 265.115L698.499 268.611L684.868 270.384L682.408 269.646L670.843 274.619L665.479 280.282L660.115 297.516L660.362 299.535L668.383 308.054L670.745 309.335L670.45 310.319L662.133 312.388L656.917 308.35L649.634 313.816L647.518 317.016L648.847 318.1L645.107 321.251L629.261 328.884L618.189 332.331L616.811 334.497L617.008 339.224L619.469 346.857L617.894 348.925L611.005 350.206L607.56 347.054L600.966 345.626L585.612 343.164L581.38 343.903L574.885 345.577L566.371 349.615L563.911 352.126L557.957 362.713L551.51 365.52L549.05 364.929L551.904 362.614L549.542 356.607L543.784 352.421L539.7 358.478L540.979 362.171L539.503 365.175L502.005 386.054L497.33 390.092L495.805 395.804L479.714 410.576L463.72 420.178L454.272 422.788L432.128 438.595L420.662 448.246L417.365 448.64L415.2 451.693L419.629 453.811L422.876 454.106L427.453 452.333V456.076L424.402 462.527L417.906 466.712L412.69 474ZM630.738 360.694L623.159 357.493L617.451 358.38L615.04 356.508L615.532 352.668L620.207 349.467L625.57 340.357L629.114 341.588L632.361 344.789L633.001 359.118L630.738 360.694Z" fill="#858488" fill-opacity="0.4" stroke="#26272D" stroke-opacity="0.2" stroke-width="0.5"/>
<circle cx="476" cy="305" r="6" fill="#0066CC"/>
<circle cx="293" cy="67" r="6" fill="#0066CC"/>
</svg>
